<svg id="Слой_1" data-name="Слой 1" xmlns="http://www.w3.org/2000/svg" viewBox="0 0 97 22"><defs><style>.cls-1{fill:#c1272d;}</style></defs><title>Монтажная область 1</title><path class="cls-1" d="M48.34,13.68c-1.72,1.17-3.39,1.16-4.61,0a3.38,3.38,0,0,1-.38-4.13c1-1.49,2.36-1.72,4.62-.79.13-.26.22-.69.38-.72a5.39,5.39,0,0,1,1.5,0c.09,0,.17.35.18.54,0,1,0,2,0,2.95a5.19,5.19,0,0,0,0,.56c0,.37.08.76.52.85a1,1,0,0,0,1.09-.52,3.57,3.57,0,0,0,.17-2.81,4.89,4.89,0,0,0-5.2-3.41,5.1,5.1,0,0,0-5.06,4.26,5.12,5.12,0,0,0,2.92,5.7,5.33,5.33,0,0,0,4.95-.26c.62-.36.67-.34,1.08.35s.39.81-.22,1.13A7.34,7.34,0,0,1,42.46,17a6.65,6.65,0,0,1-2.73-7.16A6.38,6.38,0,0,1,45,4.72c3-.6,5.67,0,7.67,2.47a5.48,5.48,0,0,1,1.06,5.17,3.24,3.24,0,0,1-4.41,2A5.53,5.53,0,0,1,48.34,13.68Zm-.59-2.33a1.31,1.31,0,1,0-2.6,0,1.39,1.39,0,0,0,1.28,1.51A1.34,1.34,0,0,0,47.75,11.35Z"/><path class="cls-1" d="M26.14,8c2-1.63,3.34-1.65,5.36-.08a4,4,0,0,1,3.07-1.13A3.37,3.37,0,0,1,37.87,10c.1,1.67,0,3.36,0,5a.7.7,0,0,1-.74.75c-.46,0-.91,0-1.36,0-.61,0-.86-.26-.86-.88,0-1.34,0-2.68,0-4,0-1-.6-1.56-1.52-1.45a1.35,1.35,0,0,0-1.16,1.5c0,1.26,0,2.53,0,3.79,0,.86-.21,1.06-1.08,1.07-.34,0-.68,0-1,0-.63,0-.88-.27-.88-.91,0-1.34,0-2.68,0-4a1.33,1.33,0,1,0-2.66-.1c0,.54,0,1.09,0,1.64,0,.83,0,1.66,0,2.49,0,.66-.24.89-.88.91-.42,0-.84,0-1.25,0-.58,0-.84-.26-.84-.84,0-2.38,0-4.76,0-7.14a.74.74,0,0,1,.8-.82h.51C25.85,7,26,7.09,26.14,8Z"/><path class="cls-1" d="M8.28,15c-2.16,1.33-4.16,1.23-5.64-.27a4.91,4.91,0,0,1-.6-6C3.23,6.93,5.18,6.42,7.78,7.34a3.41,3.41,0,0,0,.06-.43c0-.77,0-1.54,0-2.32a.83.83,0,0,1,.78-1c.45-.07.89-.18,1.34-.25s.82.15.86.69a3.38,3.38,0,0,1,0,.45v10c0,.51.07,1.06-.62,1.21C9.24,16,8.62,15.75,8.28,15ZM8,11.39a1.85,1.85,0,0,0-1.86-2,1.88,1.88,0,0,0-1.86,2,1.89,1.89,0,0,0,1.88,2A1.85,1.85,0,0,0,8,11.39Z"/><path class="cls-1" d="M93,7.34c0-1,0-1.86,0-2.77a.83.83,0,0,1,.8-1c.43-.06.85-.17,1.28-.24s.87.14.89.72,0,1.13,0,1.7q0,4.44,0,8.88c0,.9-.2,1.09-1.1,1.1s-1.11,0-1.45-.75c-2.24,1.31-4.13,1.23-5.62-.25a4.91,4.91,0,0,1-.68-5.86C88.21,7,90,6.5,93,7.34Zm-3.6,4a1.9,1.9,0,0,0,1.83,2,1.84,1.84,0,0,0,1.89-2,1.86,1.86,0,0,0-1.81-2A1.88,1.88,0,0,0,89.35,11.36Z"/><path class="cls-1" d="M75.53,6.83a4.58,4.58,0,0,1,4.28,6.78,5.1,5.1,0,0,1-7,1.65,4.57,4.57,0,0,1-1.4-6.36A4.75,4.75,0,0,1,75.53,6.83Zm0,2.58a1.87,1.87,0,0,0-1.86,2,1.88,1.88,0,1,0,3.75,0A1.88,1.88,0,0,0,75.51,9.41Z"/><path class="cls-1" d="M22.07,11.36A4.54,4.54,0,0,1,17.32,16a4.58,4.58,0,1,1-.2-9.15A4.56,4.56,0,0,1,22.07,11.36Zm-3,.05a1.86,1.86,0,0,0-1.84-2,1.9,1.9,0,0,0-1.91,2,1.9,1.9,0,0,0,1.89,2A1.86,1.86,0,0,0,19.11,11.41Z"/><path class="cls-1" d="M63,8.07a1.93,1.93,0,0,0,.26-.19,3.35,3.35,0,0,1,3.86-.78,3.2,3.2,0,0,1,2.14,3.06c.09,1.6,0,3.21,0,4.81a.71.71,0,0,1-.73.78,11.16,11.16,0,0,1-1.53,0c-.55,0-.76-.41-.76-.94q0-2,0-4A1.28,1.28,0,0,0,65,9.4a1.31,1.31,0,0,0-1.49,1.39c0,1.29,0,2.57,0,3.86,0,.89-.22,1.11-1.09,1.12-1.9,0-1.9,0-1.9-1.88V8c0-.83.21-1,1-1,.25,0,.5,0,.74,0C62.89,7,63,7.48,63,8.07Z"/><path class="cls-1" d="M58.51,11.39v3.12c0,1.07-.19,1.26-1.24,1.26h-.79c-.75,0-1-.25-1-1,0-1.34,0-2.68,0-4V8.1c0-.95.2-1.14,1.18-1.14h.79c.81,0,1,.24,1.06,1Z"/><path class="cls-1" d="M84.9,11.35c0,1.13,0,2.26,0,3.39,0,.79-.24,1-1,1-.39,0-.79,0-1.19,0a.75.75,0,0,1-.81-.82q0-3.57,0-7.13c0-.58.27-.82.85-.84.41,0,.83,0,1.24,0,.67,0,.92.25.92.94C84.91,9.05,84.9,10.2,84.9,11.35Z"/><path class="cls-1" d="M58.78,3.84A1.77,1.77,0,0,1,57,5.62a1.81,1.81,0,1,1,1.81-1.78Z"/><path class="cls-1" d="M85.18,3.81a1.79,1.79,0,1,1-3.57,0,1.79,1.79,0,1,1,3.57,0Z"/><path d="M55.54,18.45H56v2.92h-.41Zm.59,2a.49.49,0,0,1-.21-.26l0-.44A.53.53,0,0,0,56,20a.5.5,0,0,0,.14.15.51.51,0,0,0,.22.05.39.39,0,0,0,.32-.13.5.5,0,0,0,.11-.34v-.45a.55.55,0,0,0-.11-.36.42.42,0,0,0-.32-.12.51.51,0,0,0-.22,0A.41.41,0,0,0,56,19a.48.48,0,0,0,0,.22l-.05-.4a.76.76,0,0,1,.25-.28.57.57,0,0,1,.34-.1.64.64,0,0,1,.37.1.54.54,0,0,1,.24.29,1,1,0,0,1,.08.45v.46a1.06,1.06,0,0,1-.08.45.62.62,0,0,1-.25.28.65.65,0,0,1-.38.1A.62.62,0,0,1,56.13,20.46Z"/><path d="M58.12,20.45a.74.74,0,0,1-.31-.32,1.13,1.13,0,0,1-.11-.51v-.23a1.17,1.17,0,0,1,.11-.52.75.75,0,0,1,.29-.34,1,1,0,0,1,.48-.11.72.72,0,0,1,.44.13.81.81,0,0,1,.28.37,1.55,1.55,0,0,1,.1.59v.14H58v-.33h1a.69.69,0,0,0-.13-.39.36.36,0,0,0-.3-.14.43.43,0,0,0-.36.15.61.61,0,0,0-.13.43v.26a.56.56,0,0,0,.14.4.52.52,0,0,0,.38.14.74.74,0,0,0,.25-.05,1,1,0,0,0,.22-.14l.26.26a1,1,0,0,1-.34.23.91.91,0,0,1-.39.08A1.07,1.07,0,0,1,58.12,20.45Z"/><path d="M60,18.45h.41v2.07H60Zm.2,0h1.13v.39H60.16Z"/><path d="M63,20.52V19.05l.05.05-1,1.42h-.35V18.45h.4V20l0-.06,1-1.45h.35v2.07Z"/><path d="M64.4,20.45a.75.75,0,0,1-.3-.31,1,1,0,0,1-.11-.49v-.34a1,1,0,0,1,.11-.48.75.75,0,0,1,.3-.31,1.07,1.07,0,0,1,.49-.1,1,1,0,0,1,.3,0,.76.76,0,0,1,.26.11.66.66,0,0,1,.19.18l-.29.27a.65.65,0,0,0-.21-.16.7.7,0,0,0-.25-.05.48.48,0,0,0-.36.13.49.49,0,0,0-.13.37v.34a.5.5,0,0,0,.13.38.47.47,0,0,0,.36.14.54.54,0,0,0,.25-.06.68.68,0,0,0,.21-.17l.29.29a.61.61,0,0,1-.19.17,1,1,0,0,1-.26.12,1.39,1.39,0,0,1-.3,0A1.07,1.07,0,0,1,64.4,20.45Z"/><path d="M65.83,18.45h1.61v.37H65.83Zm.6.22h.41v1.85h-.41Z"/><path d="M68,18.45h.41v2.92H68Zm.59,2a.49.49,0,0,1-.21-.26l0-.44a.53.53,0,0,0,0,.23.5.5,0,0,0,.14.15.51.51,0,0,0,.22.05.39.39,0,0,0,.32-.13.5.5,0,0,0,.11-.34v-.45a.55.55,0,0,0-.11-.36.42.42,0,0,0-.32-.12.51.51,0,0,0-.22,0,.41.41,0,0,0-.14.15.48.48,0,0,0,0,.22l0-.4a.76.76,0,0,1,.25-.28.57.57,0,0,1,.34-.1.64.64,0,0,1,.37.1.54.54,0,0,1,.24.29,1,1,0,0,1,.09.45v.46a1.06,1.06,0,0,1-.09.45.6.6,0,0,1-.24.28.71.71,0,0,1-.39.1A.64.64,0,0,1,68.57,20.46Z"/><path d="M70.29,20.39a.59.59,0,0,1-.18-.48.57.57,0,0,1,.17-.46.79.79,0,0,1,.52-.15h.59l0,.32h-.61a.33.33,0,0,0-.24.08.26.26,0,0,0-.08.21.27.27,0,0,0,.1.24.56.56,0,0,0,.32.07.81.81,0,0,0,.35,0,.16.16,0,0,0,.12-.15l0,.29a.86.86,0,0,1-.13.14l-.19.08-.23,0A.87.87,0,0,1,70.29,20.39Zm1.09-1.18a.46.46,0,0,0-.11-.32.45.45,0,0,0-.31-.11.64.64,0,0,0-.24,0,.88.88,0,0,0-.22.1l-.29-.2a.7.7,0,0,1,.31-.22,1.18,1.18,0,0,1,.43-.08,1,1,0,0,1,.44.09.7.7,0,0,1,.28.26.93.93,0,0,1,.09.42v1.33h-.38Z"/><path d="M72.14,18.45h1.61v.37H72.14Zm.6.22h.41v1.85h-.41Z"/><path d="M74.49,20.45a.75.75,0,0,1-.3-.31,1.22,1.22,0,0,1-.1-.49v-.34a1.17,1.17,0,0,1,.1-.48.75.75,0,0,1,.3-.31.92.92,0,0,1,.46-.1,1,1,0,0,1,.46.1.72.72,0,0,1,.29.31,1,1,0,0,1,.1.48v.35a1,1,0,0,1-.1.48.72.72,0,0,1-.29.31,1,1,0,0,1-.46.1A.92.92,0,0,1,74.49,20.45Zm.79-.42a.53.53,0,0,0,.12-.37v-.35a.53.53,0,0,0-.12-.37.48.48,0,0,0-.66,0,.53.53,0,0,0-.12.37v.35a.53.53,0,0,0,.12.37.46.46,0,0,0,.66,0Z"/><path d="M76.38,18.45h.41v2.92h-.41Zm.59,2a.61.61,0,0,1-.21-.26l0-.44a.52.52,0,0,0,0,.23.4.4,0,0,0,.14.15.48.48,0,0,0,.22.05.37.37,0,0,0,.31-.13.5.5,0,0,0,.11-.34v-.45a.55.55,0,0,0-.11-.36.4.4,0,0,0-.31-.12.48.48,0,0,0-.22,0,.34.34,0,0,0-.14.15.48.48,0,0,0,0,.22l0-.4a.67.67,0,0,1,.24-.28.61.61,0,0,1,.34-.1.67.67,0,0,1,.38.1.64.64,0,0,1,.24.29,1.21,1.21,0,0,1,.08.45v.46a1.25,1.25,0,0,1-.08.45.62.62,0,0,1-.25.28.71.71,0,0,1-.39.1A.64.64,0,0,1,77,20.46Z"/><path d="M79.57,20.16h2v.36h-2Zm0,0H80V21h-.41Zm.07,0h0a.29.29,0,0,0,.19-.07.4.4,0,0,0,.08-.21,1.87,1.87,0,0,0,0-.38V18.45h.4v1.18a.86.86,0,0,1-.14.55.52.52,0,0,1-.42.18h0Zm.6-1.71h.92v.37h-.92Zm.79,0h.41v2.07H81Zm.37,1.71h.41V21H81.4Z"/><path d="M82.56,20.45a.67.67,0,0,1-.29-.31,1.07,1.07,0,0,1-.1-.49v-.34a1,1,0,0,1,.1-.48.67.67,0,0,1,.29-.31,1.11,1.11,0,0,1,.92,0,.67.67,0,0,1,.29.31,1,1,0,0,1,.11.48v.35a1,1,0,0,1-.11.48.67.67,0,0,1-.29.31,1.11,1.11,0,0,1-.92,0Zm.79-.42a.53.53,0,0,0,.12-.37v-.35a.53.53,0,0,0-.12-.37.48.48,0,0,0-.66,0,.53.53,0,0,0-.12.37v.35a.53.53,0,0,0,.12.37.46.46,0,0,0,.66,0Z"/><path d="M86,18.45h.36v2.07H86V19.06l0,.13-.51.93h-.24l-.51-.93,0-.13v1.46h-.37V18.45h.37l.61,1.15Z"/><path d="M87.4,20.45a.8.8,0,0,1-.31-.32,1.13,1.13,0,0,1-.11-.51v-.23a1.17,1.17,0,0,1,.11-.52.77.77,0,0,1,.3-.34,1,1,0,0,1,.47-.11.72.72,0,0,1,.44.13.81.81,0,0,1,.28.37,1.55,1.55,0,0,1,.1.59v.14h-1.4v-.33h1a.63.63,0,0,0-.13-.39.36.36,0,0,0-.3-.14.43.43,0,0,0-.36.15.61.61,0,0,0-.13.43v.26a.56.56,0,0,0,.14.4.52.52,0,0,0,.38.14.7.7,0,0,0,.25-.05,1,1,0,0,0,.22-.14l.27.26a1.12,1.12,0,0,1-.35.23.91.91,0,0,1-.39.08A1.07,1.07,0,0,1,87.4,20.45Z"/><path d="M89.24,18.45h.41v2.07h-.41Zm.25.87h1.27v.37H89.49Zm1.06-.87H91v2.07h-.41Z"/><path d="M91.93,20.45a.67.67,0,0,1-.29-.31,1.07,1.07,0,0,1-.1-.49v-.34a1,1,0,0,1,.1-.48.67.67,0,0,1,.29-.31,1.11,1.11,0,0,1,.92,0,.75.75,0,0,1,.3.31,1.17,1.17,0,0,1,.1.48v.35a1.14,1.14,0,0,1-.1.48.75.75,0,0,1-.3.31,1.11,1.11,0,0,1-.92,0Zm.79-.42a.53.53,0,0,0,.12-.37v-.35a.53.53,0,0,0-.12-.37.48.48,0,0,0-.66,0,.53.53,0,0,0-.12.37v.35a.53.53,0,0,0,.12.37.46.46,0,0,0,.66,0Z"/><path d="M93.83,18.45h.4v2.07h-.4Zm.24,1.71h.76a.27.27,0,0,0,.19-.07.29.29,0,0,0,.07-.19h0a.3.3,0,0,0-.07-.2.24.24,0,0,0-.19-.07h-.76v-.37h.76A.23.23,0,0,0,95,19.2a.2.2,0,0,0,.06-.15.24.24,0,0,0-.06-.17.19.19,0,0,0-.15-.06h-.77v-.37h.78a.69.69,0,0,1,.45.13.46.46,0,0,1,.16.38.44.44,0,0,1-.12.32.56.56,0,0,1-.33.15.62.62,0,0,1,.36.19.52.52,0,0,1,.13.37h0a.48.48,0,0,1-.17.39.73.73,0,0,1-.49.14h-.77Z"/></svg>